<?xml version="1.0" encoding="utf-8"?>
<!-- Generator: Adobe Illustrator 24.0.1, SVG Export Plug-In . SVG Version: 6.00 Build 0)  -->
<svg version="1.1" id="Layer_1" xmlns="http://www.w3.org/2000/svg" xmlns:xlink="http://www.w3.org/1999/xlink" x="0px" y="0px"
	 viewBox="0 0 512 390" style="enable-background:new 0 0 512 390;" xml:space="preserve">
<style type="text/css">
	.st0{fill:#F2F2F2;}
	.st1{fill:#F14336;}
	.st2{fill:#D32E2A;}
</style>
<g>
	<polygon class="st0" points="485,61.8 452.3,390 59.7,390 33.4,68.2 256,192.8 	"/>
	<polygon class="st0" points="473.9,0 256,204.7 38.1,0 256,0 	"/>
</g>
<path class="st1" d="M59.7,94.5V390H24.1C10.8,390,0,379.2,0,365.9V51L39,52L59.7,94.5z"/>
<path class="st2" d="M512,51v314.9c0,13.3-10.8,24.1-24.2,24.1h-35.6V94.5L472,48L512,51z"/>
<path class="st1" d="M512,24.1V51l-59.7,43.5L256,237.6L59.7,94.5L0,51V24.1C0,10.8,10.8,0,24.1,0h14L256,158.8L473.9,0h14
	C501.2,0,512,10.8,512,24.1z"/>
<polygon class="st2" points="59.7,94.5 0,85.3 0,51 "/>
</svg>
